# Blender 5.0.1
# www.blender.org
mtllib all_materials.mtl
usemtl red
o Cube
v 1.000000 19.539600 -1.000000
v 1.000000 -1.000000 -1.000000
v 1.000000 19.539600 1.000000
v 1.000000 -1.000000 1.000000
v -1.000000 19.539600 -1.000000
v -1.000000 -1.000000 -1.000000
v -1.000000 19.539600 1.000000
v -1.000000 -1.000000 1.000000
v 2.110347 19.782652 -2.110347
v 2.110347 19.782652 2.110347
v -2.110347 19.782652 -2.110347
v -2.110347 19.782652 2.110347
v 0.000000 23.775776 0.000000
vn -0.0000 -0.9769 -0.2138
vn -0.0000 -0.0000 1.0000
vn -1.0000 -0.0000 -0.0000
vn -0.0000 -1.0000 -0.0000
vn 1.0000 -0.0000 -0.0000
vn -0.0000 -0.0000 -1.0000
vn -0.8841 0.4673 -0.0000
vn -0.0000 -0.9769 0.2138
vn -0.2138 -0.9769 -0.0000
vn 0.2138 -0.9769 -0.0000
vn -0.0000 0.4673 0.8841
vn -0.0000 0.4673 -0.8841
vn 0.8841 0.4673 -0.0000
vt 0.625000 0.250000
vt 0.625000 0.500000
vt 0.625000 0.750000
vt 0.375000 1.000000
vt 0.375000 0.750000
vt 0.625000 0.000000
vt 0.375000 0.250000
vt 0.375000 0.000000
vt 0.375000 0.500000
vt 0.125000 0.750000
vt 0.125000 0.500000
vt 0.625000 1.000000
s 0
f 5/1/1 9/2/1 1/2/1
f 3/3/2 8/4/2 4/5/2
f 7/6/3 6/7/3 8/8/3
f 2/9/4 8/10/4 6/11/4
f 1/2/5 4/5/5 2/9/5
f 5/1/6 2/9/6 6/7/6
f 11/1/7 12/6/7 13/1/7
f 3/3/8 12/12/8 7/12/8
f 7/6/9 11/1/9 5/1/9
f 1/2/10 10/3/10 3/3/10
f 12/12/11 10/3/11 13/12/11
f 9/2/12 11/1/12 13/2/12
f 10/3/13 9/2/13 13/3/13
f 5/1/1 11/1/1 9/2/1
f 3/3/2 7/12/2 8/4/2
f 7/6/3 5/1/3 6/7/3
f 2/9/4 4/5/4 8/10/4
f 1/2/5 3/3/5 4/5/5
f 5/1/6 1/2/6 2/9/6
f 3/3/8 10/3/8 12/12/8
f 7/6/9 12/6/9 11/1/9
f 1/2/10 9/2/10 10/3/10
